<svg height="16px" version="1.1" viewBox="0 0 16 16" width="16px" xmlns="http://www.w3.org/2000/svg">
  <title/><defs/>
  <g fill="none" fill-rule="evenodd" stroke="none" stroke-width="1">
    <g fill="#000000" id="Group" transform="translate(-144.000000, -48.000000)">
      <path d="M146,49 L154,49 L154,54 L158,54 L158,64 L154,64 L146,64 L146,49 L146,49 Z M155.015625,49.0120239 L158.058838,53.0283203 L155.015625,53.0283203 L155.015625,49.0120239 L155.015625,49.0120239 Z M151,54 L151,56 L149,56 L149,58 L151,58 L151,60 L153,60 L153,58 L155,58 L155,56 L153,56 L153,54 L151,54 L151,54 Z M151,54"/>
    </g>
  </g>
</svg>