<svg version="1.1" viewbox="0 0 8.4666665 10.583333625" x="0px" xmlns:cc="http://creativecommons.org/ns#" xmlns:dc="http://purl.org/dc/elements/1.1/" xmlns:inkscape="http://www.inkscape.org/namespaces/inkscape" xmlns:rdf="http://www.w3.org/1999/02/22-rdf-syntax-ns#" xmlns:sodipodi="http://sodipodi.sourceforge.net/DTD/sodipodi-0.dtd" xmlns:svg="http://www.w3.org/2000/svg" xmlns="http://www.w3.org/2000/svg" y="0px">
  <g transform="translate(0,-288.53333)">
    <path d="m 4.7624996,289.85624 v 0.52917 H 5.027083 c 0.2977356,0 0.5291666,0.23143 0.5291666,0.52916 v 3.70417 c 0,0.29774 -0.231431,0.52917 -0.5291666,0.52917 H 4.7624996 v 0.52916 H 5.027083 c 0.3169946,0 0.5992944,-0.14449 0.79375,-0.36741 0.1944555,0.22292 0.4767553,0.36741 0.79375,0.36741 h 0.2645833 v -0.52916 H 6.614583 c -0.2977357,0 -0.5291667,-0.23143 -0.5291667,-0.52917 v -0.26458 h 1.8520833 v -3.175 H 6.0854163 v -0.26459 c 0,-0.29773 0.231431,-0.52916 0.5291667,-0.52916 h 0.2645833 v -0.52917 H 6.614583 c -0.3169947,0 -0.5992945,0.14449 -0.79375,0.36742 -0.1944556,-0.22293 -0.4767554,-0.36742 -0.79375,-0.36742 z m -4.23333341,1.32292 v 3.175 H 5.027083 v -0.52917 H 1.0583329 v -2.11667 h 4.001823 v -0.52916 z m 5.55625011,0.52916 H 7.408333 v 2.11667 H 6.0854163 Z" />
  </g>
</svg>